<?xml version="1.0" encoding="utf-8"?>
<svg xmlns="http://www.w3.org/2000/svg" viewBox="0 0 50 50" fill="black" width="50px" height="50px">
    <path d="M12,0.5c-6.63,0-12,5.37-12,12c0,5.31,3.44,9.8,8.21,11.39c0.6,0.11,0.79-0.26,0.79-0.58v-2.05
	c-3.34,0.73-4.04-1.61-4.04-1.61c-0.55-1.38-1.34-1.75-1.34-1.75c-1.09-0.75,0.08-0.74,0.08-0.74c1.2,0.08,1.83,1.24,1.83,1.24
	c1.07,1.83,2.81,1.3,3.5,0.99c0.11-0.78,0.42-1.3,0.76-1.6c-2.67-0.3-5.47-1.34-5.47-5.97c0-1.32,0.47-2.39,1.24-3.23
	c-0.12-0.3-0.54-1.53,0.12-3.18c0,0,1.01-0.32,3.3,1.23c0.96-0.27,1.99-0.4,3.01-0.41c1.02,0,2.05,0.14,3.01,0.41
	c2.29-1.55,3.3-1.23,3.3-1.23c0.67,1.65,0.24,2.88,0.12,3.18c0.77,0.84,1.24,1.91,1.24,3.23c0,4.64-2.81,5.66-5.48,5.97
	c0.43,0.37,0.81,1.09,0.81,2.21v3.28c0,0.32,0.19,0.69,0.8,0.57C20.56,22.29,24,17.8,24,12.5C24,5.87,18.63,0.5,12,0.5z"/>
</svg>
